<?xml version="1.0" encoding="UTF-8" standalone="no"?>
<!-- Created with Inkscape (http://www.inkscape.org/) -->

<svg
   xmlns:dc="http://purl.org/dc/elements/1.1/"
   xmlns:cc="http://creativecommons.org/ns#"
   xmlns:rdf="http://www.w3.org/1999/02/22-rdf-syntax-ns#"
   xmlns:svg="http://www.w3.org/2000/svg"
   xmlns="http://www.w3.org/2000/svg"
   xmlns:xlink="http://www.w3.org/1999/xlink"
   xmlns:sodipodi="http://sodipodi.sourceforge.net/DTD/sodipodi-0.dtd"
   xmlns:inkscape="http://www.inkscape.org/namespaces/inkscape"
   width="250mm"
   height="110mm"
   viewBox="0 0 885.82677 389.76378"
   id="svg2"
   version="1.1"
   inkscape:version="0.91 r13725"
   sodipodi:docname="rc-brake-lights-wiring.svg"
   inkscape:export-filename="/home/laneboysrc/projects/rc-brake-lights/doc/rc-brake-lights-wiring.png"
   inkscape:export-xdpi="90"
   inkscape:export-ydpi="90">
  <defs
     id="defs4">
    <inkscape:perspective
       id="perspective40"
       inkscape:persp3d-origin="218 : 328.99998 : 1"
       inkscape:vp_z="436 : 493.49996 : 1"
       inkscape:vp_y="0 : 999.99994 : 0"
       inkscape:vp_x="0 : 493.49996 : 1"
       sodipodi:type="inkscape:persp3d" />
  </defs>
  <sodipodi:namedview
     id="base"
     pagecolor="#ffffff"
     bordercolor="#666666"
     borderopacity="1.0"
     inkscape:pageopacity="1"
     inkscape:pageshadow="2"
     inkscape:zoom="0.6462889"
     inkscape:cx="538.30573"
     inkscape:cy="57.835852"
     inkscape:document-units="mm"
     inkscape:current-layer="layer1"
     showgrid="false"
     inkscape:snap-global="false"
     inkscape:window-width="1278"
     inkscape:window-height="750"
     inkscape:window-x="0"
     inkscape:window-y="25"
     inkscape:window-maximized="1" />
  <metadata
     id="metadata7">
    <rdf:RDF>
      <cc:Work
         rdf:about="">
        <dc:format>image/svg+xml</dc:format>
        <dc:type
           rdf:resource="http://purl.org/dc/dcmitype/StillImage" />
        <dc:title></dc:title>
      </cc:Work>
    </rdf:RDF>
  </metadata>
  <g
     inkscape:label="Layer 1"
     inkscape:groupmode="layer"
     id="layer1"
     transform="translate(0,-662.59842)">
    <image
       sodipodi:absref="/home/laneboysrc/projects/rc-brake-lights/doc/rc-brake-lights.png"
       xlink:href="rc-brake-lights.png"
       y="935.70673"
       x="320.43335"
       id="image3489"
       preserveAspectRatio="none"
       height="55.195885"
       width="192.45935" />
    <image
       sodipodi:absref="/home/laneboysrc/projects/rc-brake-lights/doc/receiver.png"
       xlink:href="receiver.png"
       width="173.851"
       height="120.35839"
       preserveAspectRatio="none"
       style="image-rendering:optimizeQuality"
       id="image3430"
       x="24.145584"
       y="892.78613" />
    <path
       sodipodi:nodetypes="czc"
       inkscape:connector-curvature="0"
       id="path4489"
       d="m 508.36287,962.30767 c 18.42706,-0.33878 40.7063,2.26647 60.60527,2.02036 19.89898,-0.24612 6.17677,-25.76956 6.77034,-53.86042"
       style="fill:none;fill-rule:evenodd;stroke:#ff0000;stroke-width:3.54330707;stroke-linecap:butt;stroke-linejoin:miter;stroke-miterlimit:4;stroke-dasharray:none;stroke-opacity:1" />
    <path
       style="fill:none;fill-rule:evenodd;stroke:#000000;stroke-width:3.54330707;stroke-linecap:butt;stroke-linejoin:miter;stroke-miterlimit:4;stroke-dasharray:none;stroke-opacity:1"
       d="m 508.47437,950.94864 c 20.56254,0.10184 60.79629,8.77321 78.11894,-2.41756 17.32265,-11.19077 1.94088,-23.87168 3.01455,-56.4523"
       id="path4501"
       inkscape:connector-curvature="0"
       sodipodi:nodetypes="czc" />
    <image
       sodipodi:absref="/home/laneboysrc/projects/rc-brake-lights/doc/../../rc-simple-switch/doc/dupont-3p.png"
       xlink:href="../../rc-simple-switch/doc/dupont-3p.png"
       width="72.910034"
       height="43.070408"
       preserveAspectRatio="none"
       style="image-rendering:optimizeQuality"
       id="image4222"
       x="894.36517"
       y="-179.51715"
       transform="matrix(0,1,-1,0,0,0)" />
    <image
       sodipodi:absref="/home/laneboysrc/projects/rc-brake-lights/doc/../../rc-simple-switch/doc/dupont-3p.png"
       xlink:href="../../rc-simple-switch/doc/dupont-3p.png"
       y="942.01459"
       x="277.39224"
       id="image4219-3"
       style="image-rendering:optimizeQuality"
       preserveAspectRatio="none"
       height="43.070408"
       width="72.910034" />
    <path
       sodipodi:nodetypes="czzc"
       inkscape:connector-curvature="0"
       id="path4224"
       d="m 146.21848,900.54888 c 0,-27.89963 12.74344,-80.64831 46.4904,-80.34257 33.74696,0.30575 26.08487,66.75096 44.08046,106.9506 17.99559,40.19964 34.25289,49.87111 45.75942,49.97572"
       style="fill:none;fill-rule:evenodd;stroke:#ffd42a;stroke-width:3.54330707;stroke-linecap:butt;stroke-linejoin:miter;stroke-miterlimit:4;stroke-dasharray:none;stroke-opacity:1" />
    <path
       style="fill:none;fill-rule:evenodd;stroke:#ff6600;stroke-width:3.54330707;stroke-linecap:butt;stroke-linejoin:miter;stroke-miterlimit:4;stroke-dasharray:none;stroke-opacity:1"
       d="m 158.94497,900.08828 c 0.27352,-21.33501 -8.80665,-83.84563 32.97581,-85.77352 41.78245,-1.92788 29.2038,55.55612 47.65401,104.29733 18.45021,48.74121 35.45059,45.85554 43.81898,45.85554"
       id="path3677"
       inkscape:connector-curvature="0"
       sodipodi:nodetypes="czzc" />
    <path
       style="fill:none;fill-rule:evenodd;stroke:#803300;stroke-width:3.54330707;stroke-linecap:butt;stroke-linejoin:miter;stroke-miterlimit:4;stroke-dasharray:none;stroke-opacity:1"
       d="m 170.44763,900.07275 c -2.18821,-24.89085 -12.64675,-90.68748 27.08603,-90.25916 39.73279,0.42831 30.16611,54.77287 45.48163,102.32007 15.31552,47.5472 30.29036,40.62927 39.91401,40.42006"
       id="path4226"
       inkscape:connector-curvature="0"
       sodipodi:nodetypes="czzc" />
    <g
       id="g3364"
       transform="matrix(0.23585109,0,0,0.23585109,427.15148,678.05767)">
      <path
         id="path26575"
         d="m 568.81033,709.5 0,39.28571 174.44174,0 0,-38.57143 L 568.81033,709.5 Z"
         style="fill:#ff4a4a;fill-opacity:1;fill-rule:evenodd;stroke:#000000;stroke-width:0.95460087px;stroke-linecap:butt;stroke-linejoin:miter;stroke-opacity:1"
         inkscape:connector-curvature="0" />
      <path
         id="path26577"
         d="m 598.42637,709.14285 0,-128.92857 c 0,0 12.36714,-44.64286 64.76475,-46.42857 52.39761,-1.78571 65.41566,49.28571 65.41566,49.28571 l 0,127.14286"
         style="fill:#ff8080;fill-opacity:1;fill-rule:evenodd;stroke:#000000;stroke-width:0.95460087px;stroke-linecap:butt;stroke-linejoin:miter;stroke-opacity:1"
         inkscape:connector-curvature="0" />
      <path
         id="path26579"
         d="m 620.55705,709.5 0,-127.14286 13.99439,0 20.83585,13.201 3.57297,10.37043 -17.57435,7.14285 0,96.42858 -20.82886,0 z"
         style="fill:#808080;fill-opacity:1;fill-rule:evenodd;stroke:#000000;stroke-width:0.95460087px;stroke-linecap:butt;stroke-linejoin:miter;stroke-opacity:1"
         inkscape:connector-curvature="0" />
      <path
         id="path26581"
         d="m 647.89493,580.57142 62.81204,0 0,128.92858 -32.21964,0 -15.29621,-32.14286 0,-54.64286 13.3435,-23.57143 -28.63969,-18.57143 z"
         style="fill:#808080;fill-opacity:1;fill-rule:evenodd;stroke:#000000;stroke-width:0.95460087px;stroke-linecap:butt;stroke-linejoin:miter;stroke-opacity:1"
         inkscape:connector-curvature="0" />
      <path
         id="path26583"
         d="m 620.55705,749.5 0,238.21428 22.13066,0 0,-238.21428 -22.13066,0 z"
         style="fill:#808080;fill-opacity:1;fill-rule:evenodd;stroke:#000000;stroke-width:0.95460087px;stroke-linecap:butt;stroke-linejoin:miter;stroke-opacity:1"
         inkscape:connector-curvature="0" />
      <path
         id="path26585"
         d="m 677.83642,748.78571 0,162.14286 22.13066,0 0,-162.14286 -22.13066,0 z"
         style="fill:#808080;fill-opacity:1;fill-rule:evenodd;stroke:#000000;stroke-width:0.95460087px;stroke-linecap:butt;stroke-linejoin:miter;stroke-opacity:1"
         inkscape:connector-curvature="0" />
    </g>
    <g
       id="g3434"
       transform="matrix(0.23585109,0,0,0.23585109,501.94997,678.05767)">
      <path
         inkscape:connector-curvature="0"
         style="fill:#b3b3b3;fill-opacity:1;fill-rule:evenodd;stroke:#000000;stroke-width:0.95460087px;stroke-linecap:butt;stroke-linejoin:miter;stroke-opacity:1"
         d="m 458.81033,709.5 0,39.28571 174.44174,0 0,-38.57143 L 458.81033,709.5 Z"
         id="path3374" />
      <path
         inkscape:connector-curvature="0"
         style="fill:#cccccc;fill-opacity:1;fill-rule:evenodd;stroke:#000000;stroke-width:0.95460087px;stroke-linecap:butt;stroke-linejoin:miter;stroke-opacity:1"
         d="m 488.42637,709.14285 0,-128.92857 c 0,0 12.36714,-44.64286 64.76475,-46.42857 52.39761,-1.78571 65.41566,49.28571 65.41566,49.28571 l 0,127.14286"
         id="path3376" />
      <path
         inkscape:connector-curvature="0"
         style="fill:#808080;fill-opacity:1;fill-rule:evenodd;stroke:#000000;stroke-width:0.95460087px;stroke-linecap:butt;stroke-linejoin:miter;stroke-opacity:1"
         d="m 510.55705,709.5 0,-127.14286 13.99439,0 20.83585,13.201 3.57297,10.37043 -17.57435,7.14285 0,96.42858 -20.82886,0 z"
         id="path3378" />
      <path
         inkscape:connector-curvature="0"
         style="fill:#808080;fill-opacity:1;fill-rule:evenodd;stroke:#000000;stroke-width:0.95460087px;stroke-linecap:butt;stroke-linejoin:miter;stroke-opacity:1"
         d="m 537.89493,580.57142 62.81204,0 0,128.92858 -32.21964,0 -15.29621,-32.14286 0,-54.64286 13.3435,-23.57143 -28.63969,-18.57143 z"
         id="path3380" />
      <path
         inkscape:connector-curvature="0"
         style="fill:#808080;fill-opacity:1;fill-rule:evenodd;stroke:#000000;stroke-width:0.95460087px;stroke-linecap:butt;stroke-linejoin:miter;stroke-opacity:1"
         d="m 510.55705,749.5 0,238.21428 22.13066,0 0,-238.21428 -22.13066,0 z"
         id="path3382" />
      <path
         inkscape:connector-curvature="0"
         style="fill:#808080;fill-opacity:1;fill-rule:evenodd;stroke:#000000;stroke-width:0.95460087px;stroke-linecap:butt;stroke-linejoin:miter;stroke-opacity:1"
         d="m 567.83642,748.78571 0,162.14286 22.13066,0 0,-162.14286 -22.13066,0 z"
         id="path3384" />
    </g>
    <g
       transform="matrix(0.23585109,0,0,0.23585109,673.83303,678.05767)"
       id="g3613">
      <path
         inkscape:connector-curvature="0"
         style="fill:#ff4a4a;fill-opacity:1;fill-rule:evenodd;stroke:#000000;stroke-width:0.95460087px;stroke-linecap:butt;stroke-linejoin:miter;stroke-opacity:1"
         d="m 568.81033,709.5 0,39.28571 174.44174,0 0,-38.57143 L 568.81033,709.5 Z"
         id="path3615" />
      <path
         inkscape:connector-curvature="0"
         style="fill:#ff8080;fill-opacity:1;fill-rule:evenodd;stroke:#000000;stroke-width:0.95460087px;stroke-linecap:butt;stroke-linejoin:miter;stroke-opacity:1"
         d="m 598.42637,709.14285 0,-128.92857 c 0,0 12.36714,-44.64286 64.76475,-46.42857 52.39761,-1.78571 65.41566,49.28571 65.41566,49.28571 l 0,127.14286"
         id="path3617" />
      <path
         inkscape:connector-curvature="0"
         style="fill:#808080;fill-opacity:1;fill-rule:evenodd;stroke:#000000;stroke-width:0.95460087px;stroke-linecap:butt;stroke-linejoin:miter;stroke-opacity:1"
         d="m 620.55705,709.5 0,-127.14286 13.99439,0 20.83585,13.201 3.57297,10.37043 -17.57435,7.14285 0,96.42858 -20.82886,0 z"
         id="path3619" />
      <path
         inkscape:connector-curvature="0"
         style="fill:#808080;fill-opacity:1;fill-rule:evenodd;stroke:#000000;stroke-width:0.95460087px;stroke-linecap:butt;stroke-linejoin:miter;stroke-opacity:1"
         d="m 647.89493,580.57142 62.81204,0 0,128.92858 -32.21964,0 -15.29621,-32.14286 0,-54.64286 13.3435,-23.57143 -28.63969,-18.57143 z"
         id="path3621" />
      <path
         inkscape:connector-curvature="0"
         style="fill:#808080;fill-opacity:1;fill-rule:evenodd;stroke:#000000;stroke-width:0.95460087px;stroke-linecap:butt;stroke-linejoin:miter;stroke-opacity:1"
         d="m 620.55705,749.5 0,238.21428 22.13066,0 0,-238.21428 -22.13066,0 z"
         id="path3623" />
      <path
         inkscape:connector-curvature="0"
         style="fill:#808080;fill-opacity:1;fill-rule:evenodd;stroke:#000000;stroke-width:0.95460087px;stroke-linecap:butt;stroke-linejoin:miter;stroke-opacity:1"
         d="m 677.83642,748.78571 0,162.14286 22.13066,0 0,-162.14286 -22.13066,0 z"
         id="path3625" />
    </g>
    <g
       transform="matrix(0.23585109,0,0,0.23585109,650.47536,678.05767)"
       id="g3627">
      <path
         id="path3629"
         d="m 458.81033,709.5 0,39.28571 174.44174,0 0,-38.57143 L 458.81033,709.5 Z"
         style="fill:#b3b3b3;fill-opacity:1;fill-rule:evenodd;stroke:#000000;stroke-width:0.95460087px;stroke-linecap:butt;stroke-linejoin:miter;stroke-opacity:1"
         inkscape:connector-curvature="0" />
      <path
         id="path3631"
         d="m 488.42637,709.14285 0,-128.92857 c 0,0 12.36714,-44.64286 64.76475,-46.42857 52.39761,-1.78571 65.41566,49.28571 65.41566,49.28571 l 0,127.14286"
         style="fill:#cccccc;fill-opacity:1;fill-rule:evenodd;stroke:#000000;stroke-width:0.95460087px;stroke-linecap:butt;stroke-linejoin:miter;stroke-opacity:1"
         inkscape:connector-curvature="0" />
      <path
         id="path3633"
         d="m 510.55705,709.5 0,-127.14286 13.99439,0 20.83585,13.201 3.57297,10.37043 -17.57435,7.14285 0,96.42858 -20.82886,0 z"
         style="fill:#808080;fill-opacity:1;fill-rule:evenodd;stroke:#000000;stroke-width:0.95460087px;stroke-linecap:butt;stroke-linejoin:miter;stroke-opacity:1"
         inkscape:connector-curvature="0" />
      <path
         id="path3635"
         d="m 537.89493,580.57142 62.81204,0 0,128.92858 -32.21964,0 -15.29621,-32.14286 0,-54.64286 13.3435,-23.57143 -28.63969,-18.57143 z"
         style="fill:#808080;fill-opacity:1;fill-rule:evenodd;stroke:#000000;stroke-width:0.95460087px;stroke-linecap:butt;stroke-linejoin:miter;stroke-opacity:1"
         inkscape:connector-curvature="0" />
      <path
         id="path3637"
         d="m 510.55705,749.5 0,238.21428 22.13066,0 0,-238.21428 -22.13066,0 z"
         style="fill:#808080;fill-opacity:1;fill-rule:evenodd;stroke:#000000;stroke-width:0.95460087px;stroke-linecap:butt;stroke-linejoin:miter;stroke-opacity:1"
         inkscape:connector-curvature="0" />
      <path
         id="path3639"
         d="m 567.83642,748.78571 0,162.14286 22.13066,0 0,-162.14286 -22.13066,0 z"
         style="fill:#808080;fill-opacity:1;fill-rule:evenodd;stroke:#000000;stroke-width:0.95460087px;stroke-linecap:butt;stroke-linejoin:miter;stroke-opacity:1"
         inkscape:connector-curvature="0" />
    </g>
    <path
       sodipodi:nodetypes="czc"
       inkscape:connector-curvature="0"
       id="path3641"
       d="m 589.24615,892.66278 c 6.06504,48.03235 19.37486,53.15331 32.85124,53.50136 13.47637,0.34806 17.32598,-31.86009 16.62445,-53.19776"
       style="fill:none;fill-rule:evenodd;stroke:#000000;stroke-width:3.54330707;stroke-linecap:butt;stroke-linejoin:miter;stroke-miterlimit:4;stroke-dasharray:none;stroke-opacity:1" />
    <path
       style="fill:none;fill-rule:evenodd;stroke:#000000;stroke-width:3.54330707;stroke-linecap:butt;stroke-linejoin:miter;stroke-miterlimit:4;stroke-dasharray:none;stroke-opacity:1"
       d="m 786.9494,892.87199 c 6.06504,48.03235 19.37486,53.15331 32.85124,53.50136 13.47637,0.34806 17.53519,-32.27851 16.83366,-53.61618"
       id="path3643"
       inkscape:connector-curvature="0"
       sodipodi:nodetypes="czc" />
    <path
       sodipodi:nodetypes="czc"
       inkscape:connector-curvature="0"
       id="path3645"
       d="m 638.42401,893.46372 c 0.73942,48.03235 32.98476,56.70371 75.16026,56.46003 42.1755,-0.24367 74.93345,-6.53805 73.64019,-56.87072"
       style="fill:none;fill-rule:evenodd;stroke:#000000;stroke-width:3.54330707;stroke-linecap:butt;stroke-linejoin:miter;stroke-miterlimit:4;stroke-dasharray:none;stroke-opacity:1" />
    <path
       style="fill:none;fill-rule:evenodd;stroke:#ff0000;stroke-width:3.54330707;stroke-linecap:butt;stroke-linejoin:miter;stroke-miterlimit:4;stroke-dasharray:none;stroke-opacity:1"
       d="m 575.51921,911.26048 c 1.69028,67.86361 59.53518,58.75312 110.3972,60.38989 50.86203,1.63678 138.60657,-7.77752 136.89883,-60.55513"
       id="path3647"
       inkscape:connector-curvature="0"
       sodipodi:nodetypes="czc" />
    <path
       sodipodi:nodetypes="czc"
       inkscape:connector-curvature="0"
       id="path3649"
       d="m 624.63318,910.66875 c -0.24384,55.48524 26.1564,49.35921 77.01842,50.99598 50.86203,1.63678 73.44754,-9.95673 71.7398,-50.7428"
       style="fill:none;fill-rule:evenodd;stroke:#88aa00;stroke-width:3.54330707;stroke-linecap:butt;stroke-linejoin:miter;stroke-miterlimit:4;stroke-dasharray:none;stroke-opacity:1" />
    <path
       style="fill:none;fill-rule:evenodd;stroke:#88aa00;stroke-width:3.54330707;stroke-linecap:butt;stroke-linejoin:miter;stroke-miterlimit:4;stroke-dasharray:none;stroke-opacity:1"
       d="m 508.57208,974.65105 c 18.42706,-0.33878 85.89561,4.35857 105.79458,4.11246 19.89898,-0.24612 10.15176,-39.78662 10.74533,-67.87748"
       id="path3651"
       inkscape:connector-curvature="0"
       sodipodi:nodetypes="czc" />
    <image
       sodipodi:absref="/home/laneboysrc/projects/rc-brake-lights/doc/esc.png"
       xlink:href="esc.png"
       width="255.67686"
       height="205.39989"
       preserveAspectRatio="none"
       id="image3421"
       x="275.4856"
       y="698.56561" />
    <path
       sodipodi:nodetypes="czzc"
       inkscape:connector-curvature="0"
       id="path3430"
       d="m 281.63588,831.82806 c -19.69387,0.27352 -27.2804,5.04656 -35.1411,14.77475 -7.8607,9.72819 -18.79501,17.98365 -3.47949,65.53085 15.31552,47.5472 30.29036,40.62927 39.91401,40.42006"
       style="fill:none;fill-rule:evenodd;stroke:#803300;stroke-width:3.54330707;stroke-linecap:butt;stroke-linejoin:miter;stroke-miterlimit:4;stroke-dasharray:none;stroke-opacity:1" />
    <path
       sodipodi:nodetypes="czzc"
       inkscape:connector-curvature="0"
       id="path3432"
       d="m 281.79475,826.20491 c -7.98654,-0.3292 -24.5062,1.64245 -36.49227,13.64023 -11.98607,11.99778 -24.1779,30.02574 -5.72769,78.76695 18.45021,48.74121 35.45059,45.85554 43.81898,45.85554"
       style="fill:none;fill-rule:evenodd;stroke:#ff6600;stroke-width:3.54330707;stroke-linecap:butt;stroke-linejoin:miter;stroke-miterlimit:4;stroke-dasharray:none;stroke-opacity:1" />
    <path
       style="fill:none;fill-rule:evenodd;stroke:#ffd42a;stroke-width:3.54330707;stroke-linecap:butt;stroke-linejoin:miter;stroke-miterlimit:4;stroke-dasharray:none;stroke-opacity:1"
       d="m 281.72014,821.23054 c -19.9546,-0.13814 -32.44857,6.36359 -44.6398,18.16077 -12.19123,11.79718 -18.28659,47.56596 -0.29103,87.7656 17.99559,40.19964 34.25289,49.87111 45.75942,49.97572"
       id="path3434"
       inkscape:connector-curvature="0"
       sodipodi:nodetypes="czzc" />
  </g>
</svg>
